<svg width="25" height="18" viewBox="0 0 25 18" fill="none" xmlns="http://www.w3.org/2000/svg">
<path d="M0.500003 0C0.224001 0 0 0.224001 0 0.500003V7.55766C0 10.6382 2.34151 13.3158 5.41703 13.4903C8.36554 13.6573 10.874 11.5883 11.3985 8.82525C11.6835 9.21025 11.9732 9.56804 12.2657 9.89655L10.501 17.3858C10.4665 17.5349 10.5013 17.6902 10.5958 17.8107C10.6913 17.9297 10.8353 18.0001 10.9883 18.0001H13.5479C13.7799 18.0001 13.9798 17.8438 14.0333 17.6183C14.3438 16.3078 14.8306 14.2542 15.2716 12.3927L15.7267 12.6563C16.8092 13.2168 17.9076 13.5001 19.0001 13.5001C22.5961 13.5001 25.4632 10.3206 24.9377 6.62504C24.5896 4.17703 22.7072 2.15919 20.2902 1.63868C17.4756 1.03218 14.7628 2.47459 13.5968 4.8721C13.5968 4.8721 13.4674 5.15932 13.3634 5.44632C12.5384 4.02331 12.0539 2.54705 11.7999 1.47755C11.7074 1.08755 11.5688 0.38144 11.5528 0.33594C11.4833 0.134438 11.2946 0 11.0811 0H8.50005C8.22405 0 8.00005 0.224001 8.00005 0.500003V7.65044C8.00005 8.82495 7.14365 9.87532 5.97465 9.98932C4.63364 10.1203 3.50002 9.06506 3.50002 7.75005V0.500003C3.50002 0.224001 3.27602 0 3.00002 0H0.500003ZM19.0001 5.00003C20.3786 5.00003 21.5001 6.12154 21.5001 7.50005C21.5001 8.87856 20.3786 10.0001 19.0001 10.0001C17.8876 10.0001 16.8569 9.3292 16.1349 8.74419C16.3984 7.63169 16.5752 6.88657 16.5782 6.87407C16.8622 5.77056 17.8586 5.00003 19.0001 5.00003Z" fill="white"/>
</svg>
