<svg width="25" height="25" viewBox="0 0 25 25" fill="none" xmlns="http://www.w3.org/2000/svg">
<path d="M12.5 0C5.60287 0 0 5.60288 0 12.5C0 19.3971 5.60287 25 12.5 25C19.3971 25 25 19.3971 25 12.5C25 5.60288 19.3971 0 12.5 0ZM12.5 1.08696C18.8097 1.08696 23.913 6.19031 23.913 12.5C23.913 18.8097 18.8097 23.913 12.5 23.913C6.19031 23.913 1.08696 18.8097 1.08696 12.5C1.08696 6.19031 6.19031 1.08696 12.5 1.08696ZM13.3152 4.8913C10.6408 4.8913 8.91799 6.54185 8.71582 9.23913H6.52174V12.5H8.69565V18.4783H11.9565V12.5H14.1304V18.4783H17.3913V9.23913H11.9926C12.1524 8.15272 12.8147 8.15217 13.3152 8.15217H14.6909V4.8913H13.3152Z" fill="white"/>
</svg>
