<svg width="50" height="36" viewBox="0 0 50 36" fill="none" xmlns="http://www.w3.org/2000/svg">
<path d="M1 0C0.448 0 0 0.448 0 1V15.1152C0 21.2762 4.68298 26.6315 10.834 26.9805C16.731 27.3145 21.7479 23.1764 22.7969 17.6504C23.3669 18.4204 23.9463 19.136 24.5312 19.793L21.002 34.7715C20.933 35.0695 21.0024 35.3801 21.1914 35.6211C21.3824 35.8591 21.6706 36 21.9766 36H27.0957C27.5597 36 27.9594 35.6873 28.0664 35.2363C28.6874 32.6153 29.661 28.5082 30.543 24.7852L31.4531 25.3125C33.6181 26.4335 35.815 27 38 27C45.192 27 50.926 20.641 49.875 13.25C49.179 8.354 45.4141 4.31834 40.5801 3.27734C34.9511 2.06434 29.5254 4.94914 27.1934 9.74414C27.1934 9.74414 26.9346 10.3186 26.7266 10.8926C25.0766 8.04658 24.1076 5.09408 23.5996 2.95508C23.4146 2.17508 23.1375 0.762875 23.1055 0.671875C22.9665 0.268875 22.5891 0 22.1621 0H17C16.448 0 16 0.448 16 1V15.3008C16 17.6498 14.2872 19.7505 11.9492 19.9785C9.26722 20.2405 7 18.13 7 15.5V1C7 0.448 6.552 0 6 0H1ZM38 10C40.757 10 43 12.243 43 15C43 17.757 40.757 20 38 20C35.775 20 33.7135 18.6583 32.2695 17.4883C32.7965 15.2633 33.1502 13.773 33.1562 13.748C33.7243 11.541 35.717 10 38 10Z" fill="white"/>
</svg>
